<mxfile host="app.diagrams.net" modified="2022-09-12T18:22:19.980Z" agent="5.0 (Windows NT 10.0; Win64; x64) AppleWebKit/537.36 (KHTML, like Gecko) Chrome/105.0.0.0 Safari/537.36" etag="Q0krxWNpQjHYh1jhr1mm" version="20.2.7" type="github">
  <diagram id="WndIDnTmB3kT6Qjz0C7Q" name="Page-1">
    <mxGraphModel dx="811" dy="517" grid="1" gridSize="10" guides="1" tooltips="1" connect="1" arrows="1" fold="1" page="1" pageScale="1" pageWidth="2336" pageHeight="1654" math="0" shadow="0">
      <root>
        <mxCell id="0" />
        <mxCell id="1" parent="0" />
        <mxCell id="oxC0AMpD19ijb4CHMhyV-31" style="edgeStyle=orthogonalEdgeStyle;rounded=0;orthogonalLoop=1;jettySize=auto;html=1;exitX=1;exitY=0.5;exitDx=0;exitDy=0;entryX=0;entryY=0.5;entryDx=0;entryDy=0;" parent="1" source="oxC0AMpD19ijb4CHMhyV-3" target="oxC0AMpD19ijb4CHMhyV-7" edge="1">
          <mxGeometry relative="1" as="geometry" />
        </mxCell>
        <mxCell id="oxC0AMpD19ijb4CHMhyV-50" style="edgeStyle=orthogonalEdgeStyle;rounded=0;orthogonalLoop=1;jettySize=auto;html=1;exitX=0;exitY=0.5;exitDx=0;exitDy=0;entryX=0;entryY=0.5;entryDx=0;entryDy=0;dashed=1;endArrow=classic;endFill=0;" parent="1" source="oxC0AMpD19ijb4CHMhyV-3" target="oxC0AMpD19ijb4CHMhyV-38" edge="1">
          <mxGeometry relative="1" as="geometry" />
        </mxCell>
        <mxCell id="oxC0AMpD19ijb4CHMhyV-3" value="&lt;font style=&quot;font-size: 10px&quot;&gt;OCI Contributor&lt;/font&gt;" style="rounded=1;whiteSpace=wrap;html=1;shadow=0;labelBackgroundColor=none;strokeWidth=1;fontFamily=Verdana;fontSize=8;align=center;" parent="1" vertex="1">
          <mxGeometry x="210" y="123" width="120" height="60" as="geometry" />
        </mxCell>
        <mxCell id="oxC0AMpD19ijb4CHMhyV-7" value="Submission of Contribution or Change Request, incl. justification" style="shape=internalStorage;whiteSpace=wrap;html=1;backgroundOutline=1;rounded=1;shadow=0;fontSize=10;spacingLeft=14;spacingTop=4;dx=10;dy=10;" parent="1" vertex="1">
          <mxGeometry x="390" y="118" width="140" height="70" as="geometry" />
        </mxCell>
        <mxCell id="oxC0AMpD19ijb4CHMhyV-8" value="Assessment and Impact Analysis" style="shape=process;whiteSpace=wrap;html=1;backgroundOutline=1;rounded=1;shadow=0;fontSize=10;" parent="1" vertex="1">
          <mxGeometry x="400" y="243" width="120" height="60" as="geometry" />
        </mxCell>
        <mxCell id="oxC0AMpD19ijb4CHMhyV-41" style="edgeStyle=orthogonalEdgeStyle;rounded=0;orthogonalLoop=1;jettySize=auto;html=1;exitX=0;exitY=0.5;exitDx=0;exitDy=0;entryX=0.5;entryY=0;entryDx=0;entryDy=0;dashed=1;endArrow=classic;endFill=0;" parent="1" source="oxC0AMpD19ijb4CHMhyV-9" target="oxC0AMpD19ijb4CHMhyV-38" edge="1">
          <mxGeometry relative="1" as="geometry" />
        </mxCell>
        <mxCell id="oxC0AMpD19ijb4CHMhyV-9" value="&lt;font style=&quot;font-size: 10px&quot;&gt;P&amp;amp;A Committee&lt;/font&gt;" style="rounded=1;whiteSpace=wrap;html=1;shadow=0;labelBackgroundColor=none;strokeWidth=1;fontFamily=Verdana;fontSize=8;align=center;" parent="1" vertex="1">
          <mxGeometry x="210" y="243" width="120" height="60" as="geometry" />
        </mxCell>
        <mxCell id="oxC0AMpD19ijb4CHMhyV-10" value="" style="endArrow=classic;html=1;rounded=0;fontSize=10;exitX=0.5;exitY=1;exitDx=0;exitDy=0;entryX=0.5;entryY=0;entryDx=0;entryDy=0;" parent="1" source="oxC0AMpD19ijb4CHMhyV-7" target="oxC0AMpD19ijb4CHMhyV-8" edge="1">
          <mxGeometry width="50" height="50" relative="1" as="geometry">
            <mxPoint x="560" y="373" as="sourcePoint" />
            <mxPoint x="610" y="323" as="targetPoint" />
          </mxGeometry>
        </mxCell>
        <mxCell id="oxC0AMpD19ijb4CHMhyV-11" value="" style="endArrow=none;html=1;rounded=0;fontSize=10;exitX=1;exitY=0.5;exitDx=0;exitDy=0;entryX=0;entryY=0.5;entryDx=0;entryDy=0;endFill=0;dashed=1;" parent="1" source="oxC0AMpD19ijb4CHMhyV-9" target="oxC0AMpD19ijb4CHMhyV-8" edge="1">
          <mxGeometry width="50" height="50" relative="1" as="geometry">
            <mxPoint x="560" y="324" as="sourcePoint" />
            <mxPoint x="610" y="274" as="targetPoint" />
          </mxGeometry>
        </mxCell>
        <mxCell id="oxC0AMpD19ijb4CHMhyV-12" value="Contribution approved?" style="rhombus;whiteSpace=wrap;html=1;rounded=1;shadow=0;fontSize=10;" parent="1" vertex="1">
          <mxGeometry x="420" y="354" width="80" height="80" as="geometry" />
        </mxCell>
        <mxCell id="oxC0AMpD19ijb4CHMhyV-13" value="" style="endArrow=classic;html=1;rounded=0;fontSize=10;exitX=0.5;exitY=1;exitDx=0;exitDy=0;entryX=0.5;entryY=0;entryDx=0;entryDy=0;" parent="1" source="oxC0AMpD19ijb4CHMhyV-8" target="oxC0AMpD19ijb4CHMhyV-12" edge="1">
          <mxGeometry width="50" height="50" relative="1" as="geometry">
            <mxPoint x="440" y="454" as="sourcePoint" />
            <mxPoint x="490" y="404" as="targetPoint" />
          </mxGeometry>
        </mxCell>
        <mxCell id="oxC0AMpD19ijb4CHMhyV-37" style="edgeStyle=orthogonalEdgeStyle;rounded=0;orthogonalLoop=1;jettySize=auto;html=1;exitX=0.5;exitY=0;exitDx=0;exitDy=0;entryX=0.5;entryY=1;entryDx=0;entryDy=0;entryPerimeter=0;" parent="1" source="oxC0AMpD19ijb4CHMhyV-15" target="oxC0AMpD19ijb4CHMhyV-18" edge="1">
          <mxGeometry relative="1" as="geometry" />
        </mxCell>
        <mxCell id="oxC0AMpD19ijb4CHMhyV-15" value="Schedule and process Request" style="shape=process;whiteSpace=wrap;html=1;backgroundOutline=1;rounded=1;shadow=0;fontSize=10;" parent="1" vertex="1">
          <mxGeometry x="640" y="513" width="120" height="60" as="geometry" />
        </mxCell>
        <mxCell id="oxC0AMpD19ijb4CHMhyV-16" value="" style="endArrow=classic;html=1;rounded=0;fontSize=10;exitX=1;exitY=0.5;exitDx=0;exitDy=0;entryX=0;entryY=0.5;entryDx=0;entryDy=0;entryPerimeter=0;" parent="1" source="oxC0AMpD19ijb4CHMhyV-12" target="oxC0AMpD19ijb4CHMhyV-18" edge="1">
          <mxGeometry relative="1" as="geometry">
            <mxPoint x="520" y="464" as="sourcePoint" />
            <mxPoint x="611" y="393" as="targetPoint" />
          </mxGeometry>
        </mxCell>
        <mxCell id="oxC0AMpD19ijb4CHMhyV-17" value="No" style="edgeLabel;resizable=0;html=1;align=center;verticalAlign=middle;rounded=1;shadow=0;fontSize=10;" parent="oxC0AMpD19ijb4CHMhyV-16" connectable="0" vertex="1">
          <mxGeometry relative="1" as="geometry" />
        </mxCell>
        <mxCell id="oxC0AMpD19ijb4CHMhyV-18" value="Communication with Contributor" style="strokeWidth=1;html=1;shape=mxgraph.flowchart.terminator;whiteSpace=wrap;rounded=1;shadow=0;fontSize=10;" parent="1" vertex="1">
          <mxGeometry x="650" y="364" width="100" height="60" as="geometry" />
        </mxCell>
        <mxCell id="oxC0AMpD19ijb4CHMhyV-19" value="" style="endArrow=classic;html=1;rounded=0;fontSize=10;exitX=0.5;exitY=1;exitDx=0;exitDy=0;entryX=0.5;entryY=0;entryDx=0;entryDy=0;entryPerimeter=0;" parent="1" source="oxC0AMpD19ijb4CHMhyV-15" target="oxC0AMpD19ijb4CHMhyV-36" edge="1">
          <mxGeometry width="50" height="50" relative="1" as="geometry">
            <mxPoint x="711" y="464" as="sourcePoint" />
            <mxPoint x="700" y="463" as="targetPoint" />
          </mxGeometry>
        </mxCell>
        <mxCell id="oxC0AMpD19ijb4CHMhyV-20" value="Yes" style="endArrow=classic;html=1;rounded=0;fontSize=10;exitX=0.5;exitY=1;exitDx=0;exitDy=0;entryX=0.5;entryY=0;entryDx=0;entryDy=0;" parent="1" source="oxC0AMpD19ijb4CHMhyV-12" target="oxC0AMpD19ijb4CHMhyV-33" edge="1">
          <mxGeometry relative="1" as="geometry">
            <mxPoint x="460" y="524" as="sourcePoint" />
            <mxPoint x="460" y="544" as="targetPoint" />
          </mxGeometry>
        </mxCell>
        <mxCell id="oxC0AMpD19ijb4CHMhyV-21" value="Yes" style="edgeLabel;resizable=0;html=1;align=center;verticalAlign=middle;rounded=1;shadow=0;fontSize=10;strokeWidth=1;" parent="oxC0AMpD19ijb4CHMhyV-20" connectable="0" vertex="1">
          <mxGeometry relative="1" as="geometry" />
        </mxCell>
        <mxCell id="oxC0AMpD19ijb4CHMhyV-43" style="edgeStyle=orthogonalEdgeStyle;rounded=0;orthogonalLoop=1;jettySize=auto;html=1;exitX=0.5;exitY=1;exitDx=0;exitDy=0;entryX=0.5;entryY=0;entryDx=0;entryDy=0;" parent="1" source="oxC0AMpD19ijb4CHMhyV-23" target="oxC0AMpD19ijb4CHMhyV-42" edge="1">
          <mxGeometry relative="1" as="geometry" />
        </mxCell>
        <mxCell id="oxC0AMpD19ijb4CHMhyV-49" style="edgeStyle=orthogonalEdgeStyle;rounded=0;orthogonalLoop=1;jettySize=auto;html=1;exitX=0;exitY=0.5;exitDx=0;exitDy=0;entryX=0.5;entryY=0;entryDx=0;entryDy=0;dashed=1;endArrow=classic;endFill=0;" parent="1" source="oxC0AMpD19ijb4CHMhyV-23" target="oxC0AMpD19ijb4CHMhyV-38" edge="1">
          <mxGeometry relative="1" as="geometry" />
        </mxCell>
        <mxCell id="oxC0AMpD19ijb4CHMhyV-23" value="&lt;font style=&quot;font-size: 10px&quot;&gt;Steering Committee&lt;/font&gt;" style="rounded=1;whiteSpace=wrap;html=1;shadow=0;labelBackgroundColor=none;strokeWidth=1;fontFamily=Verdana;fontSize=8;align=center;" parent="1" vertex="1">
          <mxGeometry x="210" y="513" width="120" height="60" as="geometry" />
        </mxCell>
        <mxCell id="oxC0AMpD19ijb4CHMhyV-33" value="Substantive change?" style="rhombus;whiteSpace=wrap;html=1;rounded=1;shadow=0;fontSize=10;" parent="1" vertex="1">
          <mxGeometry x="420" y="503" width="80" height="80" as="geometry" />
        </mxCell>
        <mxCell id="oxC0AMpD19ijb4CHMhyV-34" value="" style="endArrow=classic;html=1;rounded=0;fontSize=10;exitX=1;exitY=0.5;exitDx=0;exitDy=0;entryX=0;entryY=0.5;entryDx=0;entryDy=0;" parent="1" source="oxC0AMpD19ijb4CHMhyV-33" target="oxC0AMpD19ijb4CHMhyV-15" edge="1">
          <mxGeometry relative="1" as="geometry">
            <mxPoint x="510" y="404" as="sourcePoint" />
            <mxPoint x="480" y="623" as="targetPoint" />
          </mxGeometry>
        </mxCell>
        <mxCell id="oxC0AMpD19ijb4CHMhyV-35" value="No" style="edgeLabel;resizable=0;html=1;align=center;verticalAlign=middle;rounded=1;shadow=0;fontSize=10;" parent="oxC0AMpD19ijb4CHMhyV-34" connectable="0" vertex="1">
          <mxGeometry relative="1" as="geometry" />
        </mxCell>
        <mxCell id="oxC0AMpD19ijb4CHMhyV-36" value="Publish result of Request" style="strokeWidth=1;html=1;shape=mxgraph.flowchart.terminator;whiteSpace=wrap;rounded=1;shadow=0;fontSize=10;" parent="1" vertex="1">
          <mxGeometry x="650" y="630" width="100" height="60" as="geometry" />
        </mxCell>
        <mxCell id="oxC0AMpD19ijb4CHMhyV-38" value="Industry Alignment Session" style="shape=process;whiteSpace=wrap;html=1;backgroundOutline=1;rounded=1;shadow=0;fontSize=10;" parent="1" vertex="1">
          <mxGeometry x="50" y="630" width="120" height="60" as="geometry" />
        </mxCell>
        <mxCell id="oxC0AMpD19ijb4CHMhyV-39" value="Yes" style="endArrow=classic;html=1;rounded=0;fontSize=10;exitX=0;exitY=0.5;exitDx=0;exitDy=0;entryX=1;entryY=0.5;entryDx=0;entryDy=0;" parent="1" source="oxC0AMpD19ijb4CHMhyV-33" target="oxC0AMpD19ijb4CHMhyV-23" edge="1">
          <mxGeometry relative="1" as="geometry">
            <mxPoint x="470" y="444" as="sourcePoint" />
            <mxPoint x="470" y="513" as="targetPoint" />
          </mxGeometry>
        </mxCell>
        <mxCell id="oxC0AMpD19ijb4CHMhyV-40" value="Yes" style="edgeLabel;resizable=0;html=1;align=center;verticalAlign=middle;rounded=1;shadow=0;fontSize=10;strokeWidth=1;" parent="oxC0AMpD19ijb4CHMhyV-39" connectable="0" vertex="1">
          <mxGeometry relative="1" as="geometry" />
        </mxCell>
        <mxCell id="oxC0AMpD19ijb4CHMhyV-42" value="Industry Alignment needed?" style="rhombus;whiteSpace=wrap;html=1;rounded=1;shadow=0;fontSize=10;" parent="1" vertex="1">
          <mxGeometry x="230" y="620" width="80" height="80" as="geometry" />
        </mxCell>
        <mxCell id="oxC0AMpD19ijb4CHMhyV-44" value="Contribution approved?" style="rhombus;whiteSpace=wrap;html=1;rounded=1;shadow=0;fontSize=10;" parent="1" vertex="1">
          <mxGeometry x="420" y="620" width="80" height="80" as="geometry" />
        </mxCell>
        <mxCell id="oxC0AMpD19ijb4CHMhyV-47" value="N" style="endArrow=classic;html=1;rounded=0;exitX=1;exitY=0.5;exitDx=0;exitDy=0;entryX=0;entryY=0.5;entryDx=0;entryDy=0;" parent="1" source="oxC0AMpD19ijb4CHMhyV-42" target="oxC0AMpD19ijb4CHMhyV-44" edge="1">
          <mxGeometry relative="1" as="geometry">
            <mxPoint x="330" y="480" as="sourcePoint" />
            <mxPoint x="430" y="480" as="targetPoint" />
          </mxGeometry>
        </mxCell>
        <mxCell id="oxC0AMpD19ijb4CHMhyV-48" value="No" style="edgeLabel;resizable=0;html=1;align=center;verticalAlign=middle;" parent="oxC0AMpD19ijb4CHMhyV-47" connectable="0" vertex="1">
          <mxGeometry relative="1" as="geometry" />
        </mxCell>
        <mxCell id="oxC0AMpD19ijb4CHMhyV-51" value="Yes" style="endArrow=classic;html=1;rounded=0;fontSize=10;exitX=0;exitY=0.5;exitDx=0;exitDy=0;entryX=1;entryY=0.5;entryDx=0;entryDy=0;" parent="1" source="oxC0AMpD19ijb4CHMhyV-42" target="oxC0AMpD19ijb4CHMhyV-38" edge="1">
          <mxGeometry relative="1" as="geometry">
            <mxPoint x="430" y="553" as="sourcePoint" />
            <mxPoint x="370" y="553" as="targetPoint" />
          </mxGeometry>
        </mxCell>
        <mxCell id="oxC0AMpD19ijb4CHMhyV-52" value="Yes" style="edgeLabel;resizable=0;html=1;align=center;verticalAlign=middle;rounded=1;shadow=0;fontSize=10;strokeWidth=1;" parent="oxC0AMpD19ijb4CHMhyV-51" connectable="0" vertex="1">
          <mxGeometry relative="1" as="geometry" />
        </mxCell>
        <mxCell id="oxC0AMpD19ijb4CHMhyV-53" value="" style="endArrow=classic;html=1;rounded=0;exitX=0.5;exitY=1;exitDx=0;exitDy=0;entryX=0.5;entryY=0;entryDx=0;entryDy=0;" parent="1" source="oxC0AMpD19ijb4CHMhyV-9" target="oxC0AMpD19ijb4CHMhyV-23" edge="1">
          <mxGeometry relative="1" as="geometry">
            <mxPoint x="360" y="560" as="sourcePoint" />
            <mxPoint x="460" y="560" as="targetPoint" />
          </mxGeometry>
        </mxCell>
        <mxCell id="oxC0AMpD19ijb4CHMhyV-54" value="Regular update on Request&lt;br&gt;status and disposition" style="edgeLabel;resizable=0;html=1;align=center;verticalAlign=middle;" parent="oxC0AMpD19ijb4CHMhyV-53" connectable="0" vertex="1">
          <mxGeometry relative="1" as="geometry" />
        </mxCell>
        <mxCell id="oxC0AMpD19ijb4CHMhyV-56" value="Yes" style="endArrow=classic;html=1;rounded=0;fontSize=10;exitX=1;exitY=0.5;exitDx=0;exitDy=0;entryX=0;entryY=1;entryDx=0;entryDy=0;" parent="1" source="oxC0AMpD19ijb4CHMhyV-44" target="oxC0AMpD19ijb4CHMhyV-15" edge="1">
          <mxGeometry relative="1" as="geometry">
            <mxPoint x="430" y="553" as="sourcePoint" />
            <mxPoint x="340" y="553" as="targetPoint" />
          </mxGeometry>
        </mxCell>
        <mxCell id="oxC0AMpD19ijb4CHMhyV-57" value="Yes" style="edgeLabel;resizable=0;html=1;align=center;verticalAlign=middle;rounded=1;shadow=0;fontSize=10;strokeWidth=1;" parent="oxC0AMpD19ijb4CHMhyV-56" connectable="0" vertex="1">
          <mxGeometry relative="1" as="geometry" />
        </mxCell>
      </root>
    </mxGraphModel>
  </diagram>
</mxfile>
